<svg xmlns="http://www.w3.org/2000/svg" width="139" height="116" viewBox="0 0 139 116">
  <g id="Group_1873" data-name="Group 1873" transform="translate(2160 1073)">
    <path id="Path_3677" data-name="Path 3677" d="M0,0H139V92.816L0,116Z" transform="translate(-2160 -1073)" fill="#b90f46"/>
    <g id="Group_1872" data-name="Group 1872" transform="translate(-2527.344 -2183.521)">
      <path id="Path_3678" data-name="Path 3678" d="M490.65,1252.289a10.76,10.76,0,0,1-12.29,10.576,10.7,10.7,0,0,1-.27-21.237,11.534,11.534,0,0,1,7.011,1.234c.421.222.484.411.145.74-.168.163-.313.349-.479.514a2.02,2.02,0,0,1-2.469.62,7.71,7.71,0,0,0-10.184,5.347,7.933,7.933,0,0,0,6.029,9.969,7.423,7.423,0,0,0,7.777-2.856,7.833,7.833,0,0,0,.838-8.558c-.2-.426-.2-.632.214-.891a6.238,6.238,0,0,0,1.426-1.313c.237-.283.35-.32.568.028A11.094,11.094,0,0,1,490.65,1252.289Z" transform="translate(-76.368 -79.584)" fill="#fff"/>
      <path id="Path_3679" data-name="Path 3679" d="M479.853,1148.521a10.7,10.7,0,0,1,1.288,21.348,11.694,11.694,0,0,1-6.743-1.285c-.412-.216-.444-.4-.127-.7.181-.175.337-.375.512-.557a1.93,1.93,0,0,1,2.416-.6,7.683,7.683,0,0,0,8.7-2.349,8.265,8.265,0,0,0,.74-9.187,7.911,7.911,0,0,0-12.452-1.633,8.164,8.164,0,0,0-1.419,9.265c.217.424.176.637-.215.9a7.3,7.3,0,0,0-1.464,1.352c-.2.236-.311.27-.5-.026a10.742,10.742,0,0,1,9.267-16.517Z" transform="translate(-76.439)" fill="#fff"/>
      <path id="Path_3680" data-name="Path 3680" d="M785.771,1294.171v4.252c0,1.154-.011,2.307.007,3.46.005.346-.087.487-.452.468-.521-.028-1.046-.027-1.568-.006-.34.014-.429-.122-.428-.442q.014-6.164,0-12.328c0-.295.077-.372.387-.413a2.039,2.039,0,0,1,2.063.973c1.675,2.2,3.436,4.34,5.165,6.5.117.146.2.409.433.322s.127-.347.128-.531c.01-2.253.022-4.506,0-6.759,0-.413.114-.538.517-.507a8.675,8.675,0,0,0,1.4,0c.442-.039.54.125.538.541-.015,3.172-.007,6.344-.007,9.517,0,.883-.018,1.767.009,2.649.012.39-.14.447-.493.49a1.88,1.88,0,0,1-1.886-.9c-1.8-2.344-3.669-4.63-5.513-6.937C786.02,1294.44,785.946,1294.366,785.771,1294.171Z" transform="translate(-345.52 -120.33)" fill="#fff"/>
      <path id="Path_3681" data-name="Path 3681" d="M388.784,1173.869c0-2.018.011-4.036-.008-6.054,0-.406.116-.521.519-.514,1.405.024,2.811-.008,4.217.015a4.158,4.158,0,0,1,3.469,1.553c1.257,1.647,1.1,5.119-1.523,6.143-.266.1-.383.194-.192.492.4.621.741,1.278,1.144,1.9a1.845,1.845,0,0,0,2.342.938c.435-.1.547.014.5.424a5.57,5.57,0,0,0,0,.648c0,1.023,0,1.038-1.031,1.154a3.939,3.939,0,0,1-4-1.912c-.6-.938-1.107-1.937-1.658-2.906a.963.963,0,0,0-1.071-.328c-.2.1-.125.282-.126.43-.007,1.315-.039,2.632.011,3.945.021.575-.161.719-.695.663a7.408,7.408,0,0,0-1.35,0c-.42.033-.563-.094-.549-.532.032-1.008.009-2.018.009-3.027S388.784,1174.878,388.784,1173.869Zm2.571-2.566h0c0,.486,0,.973,0,1.459,0,.2.015.361.28.352a14.814,14.814,0,0,0,2.21-.07,1.536,1.536,0,0,0,1.343-1.731,1.493,1.493,0,0,0-1.428-1.651c-.679-.065-1.367-.026-2.051-.049-.3-.01-.364.13-.355.394C391.366,1170.438,391.355,1170.871,391.355,1171.3Z" transform="translate(-7.889 -16.07)" fill="#fff"/>
      <path id="Path_3682" data-name="Path 3682" d="M1026.717,1289.38a16.257,16.257,0,0,1,3,.143,3.707,3.707,0,0,1,3.029,3.538,3.793,3.793,0,0,1-2.275,4.025c-.3.131-.347.24-.181.508.408.658.773,1.343,1.2,1.986a1.814,1.814,0,0,0,2.237.841c.43-.11.587-.034.543.425a4.476,4.476,0,0,0,0,1.025c.066.477-.176.625-.582.707a4.167,4.167,0,0,1-4.689-2.179c-.478-.826-.926-1.669-1.393-2.5a.952.952,0,0,0-1.1-.388c-.234.1-.138.31-.139.472-.008,1.351-.022,2.7.006,4.053.009.414-.12.536-.516.517-.557-.027-1.117-.02-1.675,0-.31.009-.4-.111-.4-.412q.012-6.189,0-12.378c0-.324.128-.391.419-.385C1025.012,1289.391,1025.805,1289.38,1026.717,1289.38Zm-.339,4.006h0q0,.7,0,1.4c0,.183-.011.383.258.375a12.8,12.8,0,0,0,2.369-.081,1.5,1.5,0,0,0,1.2-1.633,1.513,1.513,0,0,0-1.2-1.681,12.293,12.293,0,0,0-2.367-.1c-.233-.011-.26.127-.259.308C1026.381,1292.45,1026.378,1292.918,1026.378,1293.386Z" transform="translate(-551.295 -120.531)" fill="#fff"/>
      <path id="Path_3683" data-name="Path 3683" d="M525.738,1418.159c0-2.037.005-4.074-.006-6.111,0-.32.036-.486.427-.48,1.514.026,3.03-.016,4.543.027a3.78,3.78,0,0,1,3.829,2.826,3.958,3.958,0,0,1-2.143,4.871c-.254.1-.355.2-.19.463.388.627.736,1.28,1.144,1.894a1.867,1.867,0,0,0,2.391.954c.423-.1.508.027.477.4-.023.269-.008.54-.01.81-.007.835-.007.835-.815.983a4.126,4.126,0,0,1-4.467-2.234c-.476-.806-.908-1.638-1.364-2.457a.918.918,0,0,0-1.087-.407c-.241.1-.153.3-.154.465-.008,1.352-.023,2.7.006,4.056.009.417-.123.532-.518.51a13.351,13.351,0,0,0-1.568,0c-.409.026-.51-.12-.506-.517.02-2.019.009-4.038.009-6.057Zm2.567-2.565h0c0,.468,0,.935,0,1.4,0,.157-.03.351.219.346a12.164,12.164,0,0,0,2.42-.072,1.511,1.511,0,0,0,1.182-1.744,1.5,1.5,0,0,0-1.264-1.576,15.293,15.293,0,0,0-2.152-.1c-.352-.024-.427.137-.415.445C528.318,1414.73,528.3,1415.162,528.3,1415.593Z" transform="translate(-125.082 -225.094)" fill="#fff"/>
      <path id="Path_3684" data-name="Path 3684" d="M692.059,1293.47c0-1.226.016-2.452-.01-3.677-.008-.387.114-.495.484-.474a12.393,12.393,0,0,0,1.622,0c.454-.035.536.148.533.555-.017,2.181-.012,4.363-.006,6.544a5.427,5.427,0,0,0,.526,2.569,2.769,2.769,0,0,0,2.745,1.463,2.706,2.706,0,0,0,2.648-1.618,5.422,5.422,0,0,0,.436-2.266c0-2.235.014-4.471-.006-6.706,0-.432.124-.568.549-.542.557.034,1.118.016,1.676.007.224,0,.328.064.323.305-.062,2.774.167,5.556-.127,8.321a5.07,5.07,0,0,1-2.4,4.037c-2.355,1.408-5.891,1.082-7.561-.913a6.5,6.5,0,0,1-1.4-4.039c-.053-1.187-.011-2.379-.011-3.569Z" transform="translate(-267.409 -120.481)" fill="#fff"/>
      <path id="Path_3685" data-name="Path 3685" d="M688.3,1176.842c-.649,0-1.3.015-1.947-.007a.5.5,0,0,0-.551.38c-.364.9-.773,1.785-1.139,2.685a.5.5,0,0,1-.564.366,16.753,16.753,0,0,0-1.676,0c-.467.029-.512-.113-.338-.512.893-2.046,1.767-4.1,2.648-6.153.846-1.969,1.7-3.932,2.528-5.91a.868.868,0,0,1,.863-.6c.867-.09,1.229.259,1.554,1.04,1.616,3.891,3.3,7.754,4.976,11.62.168.388.177.545-.314.515a16.755,16.755,0,0,0-1.73,0,.56.56,0,0,1-.639-.415c-.35-.888-.756-1.753-1.112-2.638a.5.5,0,0,0-.559-.376C689.63,1176.856,688.963,1176.842,688.3,1176.842Zm.03-5.589-1.286,3.04c-.068.161-.075.276.158.274q1.107-.008,2.214,0c.233,0,.288-.092.2-.3C689.205,1173.316,688.8,1172.363,688.325,1171.253Z" transform="translate(-258.798 -15.882)" fill="#fff"/>
      <path id="Path_3686" data-name="Path 3686" d="M939.235,1302.525c-1.014.264-1.514-.2-1.786-1.15a19.4,19.4,0,0,0-.786-1.893.505.505,0,0,0-.547-.385c-1.333.02-2.667.012-4,0a.478.478,0,0,0-.52.347c-.367.9-.769,1.785-1.134,2.685a.55.55,0,0,1-.6.4c-.558-.021-1.118-.029-1.675,0-.455.023-.5-.106-.326-.508.962-2.192,1.9-4.394,2.847-6.592.812-1.885,1.631-3.766,2.427-5.658a.589.589,0,0,1,.64-.423c1.227,0,1.227-.009,1.7,1.094q2.474,5.753,4.949,11.506c.247.574.242.576-.376.576Zm-5.118-9.025c-.461,1.083-.866,2.043-1.279,3-.1.223-.076.331.2.328.72-.009,1.441-.007,2.161,0,.272,0,.3-.118.2-.338C934.986,1295.533,934.579,1294.578,934.117,1293.5Z" transform="translate(-469.115 -120.51)" fill="#fff"/>
      <path id="Path_3687" data-name="Path 3687" d="M456.375,1418.121c0-2.018.01-4.036-.009-6.054,0-.407.115-.515.518-.512q3.649.028,7.3,0c.443,0,.553.145.524.55a9.691,9.691,0,0,0,0,1.3c.022.355-.1.46-.455.456-1.585-.019-3.172.01-4.757-.018-.462-.008-.59.14-.563.581a17.086,17.086,0,0,1,0,1.783c-.016.364.119.46.466.456,1.261-.016,2.523.01,3.784-.015.4-.008.551.1.519.511a9.041,9.041,0,0,0,0,1.35c.026.367-.115.453-.458.448-1.279-.017-2.559.007-3.838-.017-.388-.007-.488.115-.476.488q.039,1.242,0,2.486c-.013.381.1.491.484.486,1.6-.02,3.207,0,4.811-.019.382-.005.5.106.479.482-.037.591.192,1.366-.1,1.729s-1.113.117-1.7.121c-2,.012-4-.009-6,.015-.437.005-.541-.129-.536-.549C456.387,1422.157,456.375,1420.139,456.375,1418.121Z" transform="translate(-65.729 -225.082)" fill="#fff"/>
      <path id="Path_3688" data-name="Path 3688" d="M808.468,1418.1c0-2,.012-4-.009-6,0-.426.107-.549.542-.545q3.623.033,7.246,0c.465,0,.594.144.559.58a7.982,7.982,0,0,0,0,1.243c.03.4-.135.483-.5.48-1.586-.016-3.173.007-4.759-.016-.408-.006-.536.112-.516.517.031.611.023,1.226,0,1.838-.015.357.111.469.464.464,1.262-.017,2.524.011,3.785-.017.421-.01.534.137.51.526a8.372,8.372,0,0,0,0,1.3c.041.432-.139.5-.52.492-1.261-.022-2.524,0-3.785-.017-.342-.005-.474.071-.463.442.028.864.026,1.731,0,2.6-.01.351.119.418.437.416,1.622-.013,3.245.007,4.867-.014.386,0,.5.113.48.489-.029.485-.016.973,0,1.459.006.259-.052.395-.355.393q-3.812-.015-7.625,0c-.414,0-.354-.26-.354-.506q0-3.055,0-6.11Z" transform="translate(-367.022 -225.087)" fill="#fff"/>
      <path id="Path_3689" data-name="Path 3689" d="M725.425,1420.384a.75.75,0,0,0,0,.162c.261,1.151-.388,1.663-1.338,2.084a7.648,7.648,0,0,1-8.291-1.162,6.741,6.741,0,0,1-1.781-6.917,6.208,6.208,0,0,1,4.993-4.7,7.863,7.863,0,0,1,5.926.972.859.859,0,0,1,.493.869c-.035.647-.008,1.3-.015,1.946,0,.115.066.274-.088.334s-.217-.1-.307-.169c-.239-.192-.459-.407-.7-.6a5.445,5.445,0,0,0-4.933-1.052,4.387,4.387,0,0,0-2.965,5.021c.453,3.5,3.614,4.477,6.366,3.48a3.617,3.617,0,0,0,1.948-1.367c.06-.093.2-.132.3-.2.271-.185.414-.168.393.213-.02.359,0,.721,0,1.081Z" transform="translate(-285.964 -223.449)" fill="#fff"/>
      <path id="Path_3690" data-name="Path 3690" d="M385.158,1418.836c.467.418.786.857,1.22,1.176a3.923,3.923,0,0,0,3.756.757,1.548,1.548,0,0,0,1.007-1.952,1.5,1.5,0,0,0-.8-.964,8.291,8.291,0,0,0-1.769-.655,5.993,5.993,0,0,1-2.274-1.088A3.539,3.539,0,0,1,387.1,1410a5.834,5.834,0,0,1,5.666.615.6.6,0,0,1,.284.775c-.147.464-.284.932-.39,1.407-.08.359-.2.394-.488.172a5.153,5.153,0,0,0-2.542-1.114,3.038,3.038,0,0,0-1.383.152,1.205,1.205,0,0,0-.837.973,1.152,1.152,0,0,0,.486,1.183,4.179,4.179,0,0,0,1.472.657,10.943,10.943,0,0,1,1.885.661,3.986,3.986,0,0,1-.571,7.528,6.333,6.333,0,0,1-5.72-1.148.784.784,0,0,1-.33-.931C384.821,1420.262,384.973,1419.582,385.158,1418.836Z" transform="translate(-4.308 -223.35)" fill="#fff"/>
      <path id="Path_3691" data-name="Path 3691" d="M386.03,1298.2q1.158-2.717,2.309-5.418c.438-1.028.877-2.055,1.306-3.085a.48.48,0,0,1,.517-.363c.594.023,1.19.023,1.784,0,.41-.017.453.108.3.464-.829,1.9-1.64,3.8-2.457,5.705-.938,2.185-1.885,4.366-2.806,6.558a.625.625,0,0,1-.675.459c-1.2,0-1.19.01-1.659-1.085q-2.491-5.809-5-11.611c-.2-.455-.078-.511.344-.49a16.017,16.017,0,0,0,1.676,0,.6.6,0,0,1,.681.445c1.115,2.656,2.252,5.3,3.386,7.951C385.8,1297.887,385.818,1298.083,386.03,1298.2Z" transform="translate(0 -120.492)" fill="#fff"/>
      <path id="Path_3692" data-name="Path 3692" d="M596.3,1420.091l1.163-2.718c.814-1.9,1.639-3.8,2.433-5.713a.558.558,0,0,1,.638-.408c.575.026,1.153.017,1.729,0,.3-.007.435.025.281.381q-2.679,6.2-5.329,12.4a.561.561,0,0,1-.614.381c-1.239.005-1.23.011-1.722-1.136q-2.46-5.733-4.931-11.461c-.241-.56-.243-.565.377-.562.683,0,1.488-.2,2.015.09s.611,1.17.881,1.794c.936,2.163,1.854,4.335,2.78,6.5A.728.728,0,0,0,596.3,1420.091Z" transform="translate(-179.911 -224.776)" fill="#fff"/>
      <path id="Path_3693" data-name="Path 3693" d="M618.975,1172.8c1.09-1.691,2.156-3.294,3.161-4.935a1.149,1.149,0,0,1,1.211-.646c.639.051,1.284.012,2.046.012-.625.964-1.186,1.834-1.752,2.7q-1.6,2.441-3.2,4.877a1.4,1.4,0,0,0-.228.814c.012,1.424-.006,2.848.012,4.271,0,.362-.074.515-.472.489a14.151,14.151,0,0,0-1.675,0c-.36.019-.462-.093-.457-.453.02-1.406,0-2.812.015-4.217a1.779,1.779,0,0,0-.318-1.055q-2.272-3.451-4.521-6.916c-.085-.131-.27-.268-.2-.415.093-.184.325-.083.493-.086.595-.011,1.191.019,1.784-.01a.78.78,0,0,1,.783.424c.949,1.509,1.919,3,2.883,4.5C618.671,1172.35,618.8,1172.542,618.975,1172.8Z" transform="translate(-199.409 -15.994)" fill="#fff"/>
      <path id="Path_3694" data-name="Path 3694" d="M1090.562,1299.477c.4-1.483-.357-2.944-1.391-4.384-1.206-1.68-2.289-3.448-3.415-5.185-.1-.153-.329-.325-.2-.509.068-.1.333-.063.509-.065.594-.005,1.191.026,1.783-.009a.728.728,0,0,1,.726.423c1,1.579,2.039,3.138,3.03,4.725.264.422.372.339.594-.012.992-1.565,2.013-3.112,3-4.682a.813.813,0,0,1,.822-.45c.611.031,1.225.023,1.837,0,.419-.014.407.11.207.414-1.208,1.833-2.342,3.719-3.624,5.5a5.844,5.844,0,0,0-1.3,4.284c.1.834.005,1.691.023,2.537.007.321-.08.45-.423.436-.593-.023-1.189-.01-1.783.006-.3.008-.411-.1-.4-.411C1090.574,1301.341,1090.562,1300.584,1090.562,1299.477Z" transform="translate(-604.109 -120.488)" fill="#fff"/>
      <path id="Path_3695" data-name="Path 3695" d="M871,1289.328c1.676,0,3.352.019,5.027-.012.492-.009.634.145.591.612a8.537,8.537,0,0,0,0,1.242c.019.347-.092.471-.458.463-1.117-.024-2.234.008-3.351-.019-.414-.01-.544.095-.542.532.02,3.243,0,6.486.024,9.728,0,.508-.143.665-.638.619a8.045,8.045,0,0,0-1.4,0c-.438.036-.548-.127-.546-.546.016-2.882.008-5.765.009-8.647,0-.4-.022-.794.006-1.188.027-.372-.091-.5-.477-.493-1.135.023-2.27-.01-3.4.017-.392.009-.505-.118-.474-.49s0-.72.01-1.08c.013-.794-.14-.73.764-.733C867.76,1289.325,869.382,1289.328,871,1289.328Z" transform="translate(-415.714 -120.481)" fill="#fff"/>
      <path id="Path_3696" data-name="Path 3696" d="M780.752,1173.8c0-2.019.009-4.037-.009-6.056,0-.38.1-.505.483-.483a11,11,0,0,0,1.513,0c.47-.037.607.1.6.593-.025,3.172-.016,6.344-.011,9.517,0,.834-.1.718.709.722,1.532.007,3.064,0,4.6,0,.235,0,.355-.028.39.341.053.556.006,1.108.056,1.659.025.279-.125.326-.36.326-2.524-.006-5.047-.013-7.571,0-.361,0-.407-.146-.405-.45C780.757,1177.91,780.752,1175.855,780.752,1173.8Z" transform="translate(-343.305 -16.028)" fill="#fff"/>
      <path id="Path_3697" data-name="Path 3697" d="M629.838,1295.881c0-2.018.011-4.036-.009-6.054,0-.41.123-.534.523-.509a11.918,11.918,0,0,0,1.567,0c.453-.032.481.2.48.554-.012,3.117-.009,6.234-.01,9.352,0,.929,0,.93.947.93,1.442,0,2.884.017,4.325-.01.418-.008.545.126.5.52-.061.584.25,1.337-.133,1.713-.358.351-1.1.1-1.671.1-1.946.013-3.892.007-5.839.007-.684,0-.684,0-.684-.712Q629.838,1298.827,629.838,1295.881Z" transform="translate(-214.166 -120.478)" fill="#fff"/>
      <path id="Path_3698" data-name="Path 3698" d="M688.558,1418.118c0,2.036-.013,4.071.01,6.107,0,.424-.143.521-.527.5-.557-.027-1.117-.02-1.675,0-.273.008-.374-.059-.373-.359q.019-6.188.008-12.376c0-.331.093-.442.426-.426a13.44,13.44,0,0,0,1.567,0c.44-.031.585.1.579.561-.025,2-.011,4-.011,6Z" transform="translate(-262.226 -225.083)" fill="#fff"/>
    </g>
  </g>
</svg>
